<svg width="74" height="24" viewBox="0 0 74 24" fill="none" xmlns="http://www.w3.org/2000/svg">
<g clip-path="url(#clip0)">
<path d="M32.8877 10.4694L27.9205 23.6386H24.1328L31.3943 5.27191H34.5435L41.6967 23.6386H37.7792L32.8877 10.4694Z" fill="#8C8C8C"/>
<path d="M45.56 16.5598V23.6812H42.3135V9.76795H45.3869V11.3729C45.7954 10.8017 46.3408 10.3381 46.9749 10.023C47.6091 9.70784 48.3125 9.55087 49.023 9.566V12.5846C46.2093 12.7866 45.6033 13.977 45.6033 16.5598" fill="#8C8C8C"/>
<path d="M52.2805 12.6377H50.127V9.76793H52.2805V5.27191H55.5704V9.76793H57.7564V12.6377H55.5704V23.6386H52.2805V12.6377Z" fill="#8C8C8C"/>
<path d="M66.7494 9.43838C68.5485 9.4099 70.2892 10.0649 71.6084 11.2666C72.3669 11.9542 72.9712 12.7895 73.383 13.7191C73.7947 14.6487 74.0048 15.6523 74 16.6661C74.008 17.7497 73.7748 18.8219 73.3169 19.8078C72.8589 20.7936 72.1872 21.6694 71.3487 22.3738C70.0599 23.4551 68.4116 24.0337 66.7169 24C65.1393 24.0166 63.6064 23.4859 62.3882 22.5013V23.6811H59.1416V5.27188H62.3882V10.9265C63.6234 9.91801 65.1993 9.40211 66.8035 9.48094L66.7494 9.43838ZM66.4031 20.8432C66.9598 20.8649 67.5152 20.775 68.0353 20.5789C68.5555 20.3829 69.0295 20.0848 69.4285 19.7029C69.8275 19.3209 70.143 18.8632 70.356 18.3575C70.5689 17.8518 70.6747 17.3088 70.6669 16.7617C70.6728 15.6837 70.2453 14.647 69.4773 13.8768C68.7093 13.1066 67.6629 12.6651 66.5654 12.6483C66.018 12.6507 65.4767 12.7615 64.974 12.9742C64.4712 13.1868 64.0172 13.497 63.6393 13.886C63.2614 14.275 62.9674 14.7349 62.7747 15.2381C62.582 15.7414 62.4947 16.2777 62.518 16.8148C62.5022 17.3303 62.5903 17.8438 62.7772 18.3257C62.9642 18.8076 63.2463 19.2484 63.6074 19.6227C63.9685 19.9971 64.4014 20.2977 64.8811 20.5072C65.3609 20.7166 65.8782 20.8308 66.4031 20.8432Z" fill="#8C8C8C"/>
<path d="M16.8711 3.10365H8.38672V-3.05176e-05H-0.0327032V18.7175C-0.0341263 19.3646 0.0944083 20.0057 0.345574 20.604C0.596739 21.2023 0.965619 21.746 1.43103 22.2041C1.89644 22.6622 2.44927 23.0257 3.05788 23.2737C3.66649 23.5216 4.31893 23.6492 4.97783 23.6492H21.8491V8.02482C21.8491 6.71965 21.3212 5.46791 20.3816 4.54501C19.4419 3.62211 18.1675 3.10365 16.8386 3.10365H16.8711ZM19.2519 13.3924V21.4172H15.2694V19.961C13.9532 20.7067 12.4602 21.0989 10.9407 21.0983C9.40514 21.0091 7.92975 20.4803 6.69659 19.5772C5.46343 18.6741 4.52644 17.4361 4.00119 16.0161C3.47595 14.5961 3.38546 13.0562 3.74085 11.5862C4.09625 10.1163 4.882 8.78072 6.00117 7.74424C7.12033 6.70777 8.52393 6.01578 10.0388 5.7536C11.5537 5.49142 13.1136 5.67056 14.5261 6.26889C15.9386 6.86722 17.1418 7.85858 17.9874 9.12066C18.8329 10.3827 19.2838 11.8603 19.2844 13.3711L19.2519 13.3924Z" fill="#8C8C8C"/>
</g>
<defs>
<clipPath id="clip0">
<rect width="74" height="24" fill="white"/>
</clipPath>
</defs>
</svg>
